<?xml version="1.0" encoding="UTF-8"?>
<svg version="1.1" xmlns="http://www.w3.org/2000/svg" width="512" height="512">
<path d="M0 0 C1.11181641 -0.02513672 1.11181641 -0.02513672 2.24609375 -0.05078125 C11.58756116 1.41423809 17.16934674 12.737536 22.30957031 19.7890625 C24.55439265 22.89109314 26.77400734 26.0107861 28.99365234 29.13085938 C30.42591948 31.12257104 31.88664204 33.08797 33.36328125 35.046875 C41.57192589 46.08559581 41.57192589 46.08559581 40.5625 53.3125 C39.29974492 57.24932468 37.96733097 58.9547424 34.875 61.6875 C31.5625 63.3125 31.5625 63.3125 23.5625 63.3125 C23.5625 138.8825 23.5625 214.4525 23.5625 292.3125 C43.3625 291.8175 43.3625 291.8175 63.5625 291.3125 C92.90648751 290.78090602 92.90648751 290.78090602 95.90917969 293.21411133 C97.5625 295.3125 97.5625 295.3125 97.5625 297.3125 C100.67312237 296.98214465 103.77303936 296.5906429 106.875 296.1875 C107.75607422 296.0946875 108.63714844 296.001875 109.54492188 295.90625 C112.02616235 295.56661252 114.22026091 295.20321861 116.5625 294.3125 C118.64313405 291.44530737 118.64313405 291.44530737 119.5625 288.3125 C122.24708212 285.62791788 125.13101836 285.28061091 128.71875 284.46484375 C130.21808845 284.10903942 131.71726818 283.75256573 133.21630859 283.39550781 C134.4014505 283.11640564 134.4014505 283.11640564 135.61053467 282.83166504 C193.5594273 269.08479658 247.52766555 241.75332832 294.5625 205.3125 C295.10148926 204.89822754 295.64047852 204.48395508 296.19580078 204.05712891 C302.82168497 198.95985941 309.33135931 193.74322217 315.6875 188.3125 C316.20038574 187.87510498 316.71327148 187.43770996 317.24169922 186.98706055 C327.0719889 178.50528107 336.47687439 169.58483748 345.65454102 160.40576172 C347.25454519 158.80796107 348.86243615 157.21838449 350.47070312 155.62890625 C356.95517897 149.17914062 362.86485187 142.47920509 368.5625 135.3125 C369.48563439 134.22246532 370.41525708 133.13783935 371.35546875 132.0625 C386.79477059 114.33123003 399.76110644 94.85547323 411.25 74.375 C411.88373535 73.24759399 411.88373535 73.24759399 412.53027344 72.09741211 C413.10890137 71.04565796 413.10890137 71.04565796 413.69921875 69.97265625 C414.20521606 69.05432007 414.20521606 69.05432007 414.72143555 68.11743164 C415.61218946 66.20586598 416.11704619 64.36964027 416.5625 62.3125 C415.84964844 62.61285156 415.13679688 62.91320312 414.40234375 63.22265625 C404.31188575 67.22896192 404.31188575 67.22896192 398.5625 65.3125 C395.74277069 62.94756574 395.58399169 61.4844335 395.125 57.8125 C395.64884779 53.62171765 396.36113814 52.93539715 399.5625 50.3125 C402.62768555 48.84863281 402.62768555 48.84863281 406.19921875 47.515625 C406.83809525 47.2771283 407.47697174 47.03863159 408.13520813 46.79290771 C409.48382918 46.2933492 410.83457369 45.79949028 412.18725586 45.31103516 C414.23326062 44.56857444 416.26773089 43.79936904 418.30273438 43.02734375 C431.50971585 38.12129856 431.50971585 38.12129856 438.5625 39.3125 C442.01011027 42.84786169 443.65615605 46.52473524 445.359375 51.1171875 C445.5978717 51.7593924 445.83636841 52.40159729 446.08209229 53.06326294 C446.58079874 54.4146184 447.07468742 55.7677607 447.56396484 57.12255859 C448.30984523 59.18017643 449.07761941 61.22866247 449.84765625 63.27734375 C450.33207378 64.59846608 450.81519036 65.9200663 451.296875 67.2421875 C451.73225586 68.43054199 452.16763672 69.61889648 452.61621094 70.84326172 C453.62021497 74.52409176 453.84087228 77.51520184 453.5625 81.3125 C452.0625 83.75 452.0625 83.75 449.5625 85.3125 C446.75510116 85.92230385 444.36503778 85.96546241 441.5625 85.3125 C437.68273336 81.95702615 435.90928053 77.18947799 434.5625 72.3125 C434.5625 71.3225 434.5625 70.3325 434.5625 69.3125 C433.9025 69.3125 433.2425 69.3125 432.5625 69.3125 C432.19125 70.5809375 432.19125 70.5809375 431.8125 71.875 C430.5625 75.3125 430.5625 75.3125 428.52158833 78.26558399 C425.57507016 83.37830452 425.96680798 88.74296533 425.96708679 94.50065613 C425.95167447 95.72731957 425.93626216 96.95398302 425.9203828 98.21781808 C425.88208384 101.61091766 425.86159862 105.00325558 425.84903371 108.39649069 C425.8313002 112.06069965 425.79096577 115.72467589 425.75410461 119.38873291 C425.67048107 128.2297429 425.62549473 137.07078746 425.58586118 145.91208765 C425.57037962 149.2442911 425.55249198 152.57647966 425.53452688 155.90867051 C425.45545022 170.60647076 425.3880097 185.30427674 425.35316753 200.00225353 C425.34450887 203.5956595 425.33578608 207.18906528 425.3269043 210.7824707 C425.32470703 211.67553951 425.32250975 212.56860832 425.3202459 213.48873983 C425.28269001 227.9562167 425.17344543 242.42222187 425.03436043 256.88904282 C424.89260181 271.75578929 424.81511497 286.62178667 424.80031425 301.4892109 C424.79041805 309.83166655 424.75261429 318.17193006 424.64282799 326.51372337 C424.54952322 333.61792634 424.51463219 340.71942996 424.5549238 347.82418301 C424.57370469 351.44699422 424.56550297 355.06421924 424.48217392 358.68624306 C423.60876896 372.80429235 423.60876896 372.80429235 428.23702836 385.62685609 C432.18600141 389.45415657 436.59607426 392.0135369 441.5531832 394.32757151 C444.31652656 395.68210933 446.67432767 397.45163114 449.09765625 399.3359375 C449.86400391 399.90183594 450.63035156 400.46773438 451.41992188 401.05078125 C452.14759766 401.59089844 452.87527344 402.13101562 453.625 402.6875 C454.38748047 403.25082031 455.14996094 403.81414062 455.93554688 404.39453125 C457.42713249 405.49761677 458.91634885 406.60391536 460.40283203 407.71386719 C461.86664599 408.79741386 463.34209128 409.8653897 464.82763672 410.91894531 C465.54322754 411.43295898 466.25881836 411.94697266 466.99609375 412.4765625 C467.63474365 412.92725098 468.27339355 413.37793945 468.93139648 413.84228516 C471.45258348 416.11478749 472.4259491 418.35029253 472.8984375 421.6796875 C472.91132812 422.50726563 472.92421875 423.33484375 472.9375 424.1875 C472.96585938 425.00992187 472.99421875 425.83234375 473.0234375 426.6796875 C471.93001746 432.92515451 467.67663443 436.2913215 462.77392578 439.75268555 C462.02353027 440.26742432 461.27313477 440.78216309 460.5 441.3125 C458.89107361 442.44279651 457.28303156 443.57435266 455.67578125 444.70703125 C454.84127441 445.29178223 454.00676758 445.8765332 453.14697266 446.47900391 C447.94973753 450.16606566 442.85925425 454.00068063 437.75756836 457.81835938 C437.00483643 458.37716797 436.25210449 458.93597656 435.4765625 459.51171875 C434.8160791 460.00502686 434.1555957 460.49833496 433.47509766 461.0065918 C428.53430175 464.38013243 424.48204201 465.14493559 418.5625 464.3125 C414.17839244 462.12044622 411.43157343 459.88134617 409.5625 455.3125 C409.41688875 452.63713599 409.51324209 449.9943196 409.5625 447.3125 C408.91992249 447.32360306 408.27734497 447.33470612 407.61529541 447.34614563 C400.93214812 447.45669476 394.24926015 447.53214906 387.56542969 447.5871582 C385.07053072 447.61231494 382.57570554 447.64644403 380.08105469 447.68969727 C376.49655972 447.75029434 372.91303837 447.77869892 369.328125 447.80078125 C367.65293793 447.83949089 367.65293793 447.83949089 365.94390869 447.87898254 C358.20984731 447.88178892 358.20984731 447.88178892 354.82714844 444.90698242 C353.5625 442.3125 353.5625 442.3125 353.5625 440.3125 C347.2925 440.3125 341.0225 440.3125 334.5625 440.3125 C334.72017745 445.72787295 334.72017745 445.72787295 334.92285156 451.14160156 C334.97755728 454.86688468 334.99553748 456.72434462 332.73046875 459.80078125 C329.90599439 461.77027959 328.00419312 462.24226136 324.5625 462.3125 C319.99728261 460.18206522 319.99728261 460.18206522 318.5625 457.3125 C318.5625 454.0125 318.5625 450.7125 318.5625 447.3125 C287.5425 447.3125 256.5225 447.3125 224.5625 447.3125 C224.5625 450.6125 224.5625 453.9125 224.5625 457.3125 C221.5625 461.3125 221.5625 461.3125 218.6875 462.25 C214.95642228 462.32462155 213.48004251 461.58169973 210.5625 459.3125 C208.5625 456.3125 208.5625 456.3125 208.5625 447.3125 C177.8725 447.3125 147.1825 447.3125 115.5625 447.3125 C115.5625 450.2825 115.5625 453.2525 115.5625 456.3125 C113.62328778 459.89258409 112.47325996 461.00245406 108.625 462.3125 C104.99008706 462.3125 103.41385167 461.51211414 100.5625 459.3125 C99.30012269 456.78774538 99.46393596 455.00049534 99.5 452.1875 C99.50902344 451.27742188 99.51804688 450.36734375 99.52734375 449.4296875 C99.54474609 448.38167969 99.54474609 448.38167969 99.5625 447.3125 C98.95289303 447.31710896 98.34328606 447.32171793 97.71520615 447.32646656 C82.88447026 447.43687178 68.053774 447.51962043 53.22272873 447.57156086 C46.05051672 447.59734641 38.87857895 447.63250302 31.70654297 447.68969727 C25.45561868 447.73952225 19.20489299 447.77178849 12.95377564 447.78294247 C9.64347875 447.78946308 6.33388281 447.80741143 3.02373505 447.84115028 C-0.67104622 447.87731996 -4.36464119 447.88245011 -8.05957031 447.88012695 C-9.15792709 447.89810333 -10.25628387 447.91607971 -11.38792419 447.93460083 C-12.39470718 447.92772751 -13.40149017 447.92085419 -14.43878174 447.91377258 C-15.31264149 447.91838155 -16.18650124 447.92299051 -17.08684158 447.92773914 C-20.54572544 447.02244354 -21.50192966 445.26123597 -23.4375 442.3125 C-23.93429399 439.26134843 -23.93429399 439.26134843 -23.92969131 435.7782774 C-23.93430669 435.13261455 -23.93892207 434.4869517 -23.94367731 433.82172331 C-23.9542775 431.65504065 -23.93631275 429.48954361 -23.91851807 427.32292175 C-23.92026223 425.75530431 -23.9237643 424.18768799 -23.92887473 422.62007791 C-23.93782901 418.3100291 -23.92180499 414.00037704 -23.90176249 409.69037879 C-23.88450834 405.04352488 -23.89033274 400.39669382 -23.89337158 395.74981689 C-23.89547023 387.69802221 -23.88290719 379.64635706 -23.86042023 371.59459496 C-23.82792894 359.95308246 -23.81749615 348.31163267 -23.81246826 336.67007975 C-23.8037111 317.78302871 -23.77708409 298.89604673 -23.73925781 280.0090332 C-23.70254863 261.66072943 -23.67423151 243.3124444 -23.65722656 224.96411133 C-23.65617567 223.83335362 -23.65512477 222.70259592 -23.65404204 221.53757282 C-23.64882193 215.86496311 -23.64376709 210.19235326 -23.63879442 204.51974332 C-23.59731928 157.45061438 -23.52685938 110.38156075 -23.4375 63.3125 C-24.69949219 63.33699219 -25.96148437 63.36148438 -27.26171875 63.38671875 C-31.1706337 63.46258125 -33.3456697 62.87430225 -36.4375 60.3125 C-40.00437915 56.37663336 -39.89101303 52.25353053 -39.82397461 47.18359375 C-39.1820625 42.41487204 -36.79591035 39.46446645 -33.8125 35.8125 C-32.62346663 34.26710501 -31.43467312 32.72152545 -30.24609375 31.17578125 C-29.62331543 30.38510254 -29.00053711 29.59442383 -28.35888672 28.77978516 C-25.09849131 24.59305631 -22.00033005 20.28787638 -18.875 16 C-16.74224039 13.09421085 -14.59577528 10.19936977 -12.4375 7.3125 C-11.72722656 6.34957031 -11.01695313 5.38664062 -10.28515625 4.39453125 C-7.22244971 0.94332071 -4.5530798 0.02367286 0 0 Z " fill="#E1F0FD" transform="translate(39.4375,23.6875)"/>
<path d="M0 0 C1.11181641 -0.02513672 1.11181641 -0.02513672 2.24609375 -0.05078125 C11.58756116 1.41423809 17.16934674 12.737536 22.30957031 19.7890625 C24.55439265 22.89109314 26.77400734 26.0107861 28.99365234 29.13085938 C30.42591948 31.12257104 31.88664204 33.08797 33.36328125 35.046875 C41.57192589 46.08559581 41.57192589 46.08559581 40.5625 53.3125 C39.29974492 57.24932468 37.96733097 58.9547424 34.875 61.6875 C31.5625 63.3125 31.5625 63.3125 23.5625 63.3125 C23.5625 138.8825 23.5625 214.4525 23.5625 292.3125 C43.3625 291.8175 43.3625 291.8175 63.5625 291.3125 C92.89490855 290.78111579 92.89490855 290.78111579 95.87792969 293.15551758 C97.5625 295.3125 97.5625 295.3125 98.0625 298.25 C97.45254096 301.98599911 96.17526889 303.62288497 93.5625 306.3125 C90.36184302 307.91282849 86.86794255 307.55553057 83.34765625 307.62890625 C82.08289711 307.6600779 82.08289711 307.6600779 80.79258728 307.69187927 C78.98767346 307.73526409 77.1827017 307.77629055 75.37768555 307.81518555 C72.72231578 307.87288538 70.06725319 307.93865003 67.41210938 308.00585938 C52.78476428 308.34452999 38.20449172 308.3125 23.5625 308.3125 C23.5625 339.0025 23.5625 369.6925 23.5625 401.3125 C150.9425 401.3125 278.3225 401.3125 409.5625 401.3125 C409.2325 305.2825 408.9025 209.2525 408.5625 110.3125 C404.2725 116.2525 399.9825 122.1925 395.5625 128.3125 C391.27945072 133.69690481 386.98179826 139.0429745 382.5625 144.3125 C382.0267334 144.95268066 381.4909668 145.59286133 380.93896484 146.25244141 C375.8723078 152.2873861 370.80848455 158.27570766 365.12890625 163.75 C363.3850076 165.48954977 361.79069814 167.31771083 360.1875 169.1875 C354.52040066 175.74206456 348.35649625 181.73907464 341.78125 187.375 C339.57906128 189.29803803 337.43034957 191.27237838 335.2878418 193.26147461 C329.24181411 198.86789591 323.02788686 204.19143936 316.5625 209.3125 C315.93134277 209.81620117 315.30018555 210.31990234 314.64990234 210.83886719 C274.66580468 242.68693934 230.43962725 268.68485138 182.37597656 286.27539062 C179.99691821 287.15236389 177.6334279 288.05776704 175.2734375 288.984375 C165.73537296 292.64944796 155.8889983 295.16932821 146 297.6875 C145.29655457 297.86911682 144.59310913 298.05073364 143.86834717 298.237854 C125.43248123 302.9675812 125.43248123 302.9675812 120.65234375 300.2109375 C118.51130812 297.38041582 117.5625 295.70126369 117.5625 292.125 C118.62550861 289.13528829 119.0876717 288.20480899 121.5625 286.3125 C123.99849186 285.54091554 126.33115798 284.91789974 128.81640625 284.3671875 C130.31243205 284.01439923 131.808359 283.66119154 133.30419922 283.30761719 C134.09018494 283.12565796 134.87617065 282.94369873 135.68597412 282.75622559 C193.59662096 269.25277454 247.62998092 241.6740582 294.5625 205.3125 C295.10148926 204.89822754 295.64047852 204.48395508 296.19580078 204.05712891 C302.82168497 198.95985941 309.33135931 193.74322217 315.6875 188.3125 C316.20038574 187.87510498 316.71327148 187.43770996 317.24169922 186.98706055 C327.0719889 178.50528107 336.47687439 169.58483748 345.65454102 160.40576172 C347.25454519 158.80796107 348.86243615 157.21838449 350.47070312 155.62890625 C356.95517897 149.17914062 362.86485187 142.47920509 368.5625 135.3125 C369.48563439 134.22246532 370.41525708 133.13783935 371.35546875 132.0625 C386.79477059 114.33123003 399.76110644 94.85547323 411.25 74.375 C411.88373535 73.24759399 411.88373535 73.24759399 412.53027344 72.09741211 C413.10890137 71.04565796 413.10890137 71.04565796 413.69921875 69.97265625 C414.20521606 69.05432007 414.20521606 69.05432007 414.72143555 68.11743164 C415.61218946 66.20586598 416.11704619 64.36964027 416.5625 62.3125 C415.84964844 62.61285156 415.13679688 62.91320312 414.40234375 63.22265625 C404.31188575 67.22896192 404.31188575 67.22896192 398.5625 65.3125 C395.74277069 62.94756574 395.58399169 61.4844335 395.125 57.8125 C395.64884779 53.62171765 396.36113814 52.93539715 399.5625 50.3125 C402.62768555 48.84863281 402.62768555 48.84863281 406.19921875 47.515625 C406.83809525 47.2771283 407.47697174 47.03863159 408.13520813 46.79290771 C409.48382918 46.2933492 410.83457369 45.79949028 412.18725586 45.31103516 C414.23326062 44.56857444 416.26773089 43.79936904 418.30273438 43.02734375 C431.50971585 38.12129856 431.50971585 38.12129856 438.5625 39.3125 C442.01011027 42.84786169 443.65615605 46.52473524 445.359375 51.1171875 C445.5978717 51.7593924 445.83636841 52.40159729 446.08209229 53.06326294 C446.58079874 54.4146184 447.07468742 55.7677607 447.56396484 57.12255859 C448.30984523 59.18017643 449.07761941 61.22866247 449.84765625 63.27734375 C450.33207378 64.59846608 450.81519036 65.9200663 451.296875 67.2421875 C451.73225586 68.43054199 452.16763672 69.61889648 452.61621094 70.84326172 C453.62021497 74.52409176 453.84087228 77.51520184 453.5625 81.3125 C452.0625 83.75 452.0625 83.75 449.5625 85.3125 C446.75510116 85.92230385 444.36503778 85.96546241 441.5625 85.3125 C437.68273336 81.95702615 435.90928053 77.18947799 434.5625 72.3125 C434.5625 71.3225 434.5625 70.3325 434.5625 69.3125 C433.9025 69.3125 433.2425 69.3125 432.5625 69.3125 C432.19125 70.5809375 432.19125 70.5809375 431.8125 71.875 C430.5625 75.3125 430.5625 75.3125 428.52158833 78.26558399 C425.57507016 83.37830452 425.96680798 88.74296533 425.96708679 94.50065613 C425.95167447 95.72731957 425.93626216 96.95398302 425.9203828 98.21781808 C425.88208384 101.61091766 425.86159862 105.00325558 425.84903371 108.39649069 C425.8313002 112.06069965 425.79096577 115.72467589 425.75410461 119.38873291 C425.67048107 128.2297429 425.62549473 137.07078746 425.58586118 145.91208765 C425.57037962 149.2442911 425.55249198 152.57647966 425.53452688 155.90867051 C425.45545022 170.60647076 425.3880097 185.30427674 425.35316753 200.00225353 C425.34450887 203.5956595 425.33578608 207.18906528 425.3269043 210.7824707 C425.32470703 211.67553951 425.32250975 212.56860832 425.3202459 213.48873983 C425.28269001 227.9562167 425.17344543 242.42222187 425.03436043 256.88904282 C424.89260181 271.75578929 424.81511497 286.62178667 424.80031425 301.4892109 C424.79041805 309.83166655 424.75261429 318.17193006 424.64282799 326.51372337 C424.54952322 333.61792634 424.51463219 340.71942996 424.5549238 347.82418301 C424.57370469 351.44699422 424.56550297 355.06421924 424.48217392 358.68624306 C423.60876896 372.80429235 423.60876896 372.80429235 428.23702836 385.62685609 C432.18600141 389.45415657 436.59607426 392.0135369 441.5531832 394.32757151 C444.31652656 395.68210933 446.67432767 397.45163114 449.09765625 399.3359375 C449.86400391 399.90183594 450.63035156 400.46773438 451.41992188 401.05078125 C452.14759766 401.59089844 452.87527344 402.13101562 453.625 402.6875 C454.38748047 403.25082031 455.14996094 403.81414062 455.93554688 404.39453125 C457.42713249 405.49761677 458.91634885 406.60391536 460.40283203 407.71386719 C461.86664599 408.79741386 463.34209128 409.8653897 464.82763672 410.91894531 C465.54322754 411.43295898 466.25881836 411.94697266 466.99609375 412.4765625 C467.63474365 412.92725098 468.27339355 413.37793945 468.93139648 413.84228516 C471.45258348 416.11478749 472.4259491 418.35029253 472.8984375 421.6796875 C472.91132812 422.50726563 472.92421875 423.33484375 472.9375 424.1875 C472.96585938 425.00992187 472.99421875 425.83234375 473.0234375 426.6796875 C471.93001746 432.92515451 467.67663443 436.2913215 462.77392578 439.75268555 C462.02353027 440.26742432 461.27313477 440.78216309 460.5 441.3125 C458.89107361 442.44279651 457.28303156 443.57435266 455.67578125 444.70703125 C454.84127441 445.29178223 454.00676758 445.8765332 453.14697266 446.47900391 C447.94973753 450.16606566 442.85925425 454.00068063 437.75756836 457.81835938 C437.00483643 458.37716797 436.25210449 458.93597656 435.4765625 459.51171875 C434.8160791 460.00502686 434.1555957 460.49833496 433.47509766 461.0065918 C428.53430175 464.38013243 424.48204201 465.14493559 418.5625 464.3125 C414.17839244 462.12044622 411.43157343 459.88134617 409.5625 455.3125 C409.41688875 452.63713599 409.51324209 449.9943196 409.5625 447.3125 C408.91992249 447.32360306 408.27734497 447.33470612 407.61529541 447.34614563 C400.93214812 447.45669476 394.24926015 447.53214906 387.56542969 447.5871582 C385.07053072 447.61231494 382.57570554 447.64644403 380.08105469 447.68969727 C376.49655972 447.75029434 372.91303837 447.77869892 369.328125 447.80078125 C367.65293793 447.83949089 367.65293793 447.83949089 365.94390869 447.87898254 C358.20984731 447.88178892 358.20984731 447.88178892 354.82714844 444.90698242 C353.5625 442.3125 353.5625 442.3125 353.5625 440.3125 C347.2925 440.3125 341.0225 440.3125 334.5625 440.3125 C334.72017745 445.72787295 334.72017745 445.72787295 334.92285156 451.14160156 C334.97755728 454.86688468 334.99553748 456.72434462 332.73046875 459.80078125 C329.90599439 461.77027959 328.00419312 462.24226136 324.5625 462.3125 C319.99728261 460.18206522 319.99728261 460.18206522 318.5625 457.3125 C318.5625 454.0125 318.5625 450.7125 318.5625 447.3125 C287.5425 447.3125 256.5225 447.3125 224.5625 447.3125 C224.5625 450.6125 224.5625 453.9125 224.5625 457.3125 C221.5625 461.3125 221.5625 461.3125 218.6875 462.25 C214.95642228 462.32462155 213.48004251 461.58169973 210.5625 459.3125 C208.5625 456.3125 208.5625 456.3125 208.5625 447.3125 C177.8725 447.3125 147.1825 447.3125 115.5625 447.3125 C115.5625 450.2825 115.5625 453.2525 115.5625 456.3125 C113.62328778 459.89258409 112.47325996 461.00245406 108.625 462.3125 C104.99008706 462.3125 103.41385167 461.51211414 100.5625 459.3125 C99.30012269 456.78774538 99.46393596 455.00049534 99.5 452.1875 C99.50902344 451.27742188 99.51804688 450.36734375 99.52734375 449.4296875 C99.54474609 448.38167969 99.54474609 448.38167969 99.5625 447.3125 C98.95289303 447.31710896 98.34328606 447.32171793 97.71520615 447.32646656 C82.88447026 447.43687178 68.053774 447.51962043 53.22272873 447.57156086 C46.05051672 447.59734641 38.87857895 447.63250302 31.70654297 447.68969727 C25.45561868 447.73952225 19.20489299 447.77178849 12.95377564 447.78294247 C9.64347875 447.78946308 6.33388281 447.80741143 3.02373505 447.84115028 C-0.67104622 447.87731996 -4.36464119 447.88245011 -8.05957031 447.88012695 C-9.15792709 447.89810333 -10.25628387 447.91607971 -11.38792419 447.93460083 C-12.39470718 447.92772751 -13.40149017 447.92085419 -14.43878174 447.91377258 C-15.31264149 447.91838155 -16.18650124 447.92299051 -17.08684158 447.92773914 C-20.54572544 447.02244354 -21.50192966 445.26123597 -23.4375 442.3125 C-23.93429399 439.26134843 -23.93429399 439.26134843 -23.92969131 435.7782774 C-23.93430669 435.13261455 -23.93892207 434.4869517 -23.94367731 433.82172331 C-23.9542775 431.65504065 -23.93631275 429.48954361 -23.91851807 427.32292175 C-23.92026223 425.75530431 -23.9237643 424.18768799 -23.92887473 422.62007791 C-23.93782901 418.3100291 -23.92180499 414.00037704 -23.90176249 409.69037879 C-23.88450834 405.04352488 -23.89033274 400.39669382 -23.89337158 395.74981689 C-23.89547023 387.69802221 -23.88290719 379.64635706 -23.86042023 371.59459496 C-23.82792894 359.95308246 -23.81749615 348.31163267 -23.81246826 336.67007975 C-23.8037111 317.78302871 -23.77708409 298.89604673 -23.73925781 280.0090332 C-23.70254863 261.66072943 -23.67423151 243.3124444 -23.65722656 224.96411133 C-23.65617567 223.83335362 -23.65512477 222.70259592 -23.65404204 221.53757282 C-23.64882193 215.86496311 -23.64376709 210.19235326 -23.63879442 204.51974332 C-23.59731928 157.45061438 -23.52685938 110.38156075 -23.4375 63.3125 C-24.69949219 63.33699219 -25.96148437 63.36148438 -27.26171875 63.38671875 C-31.1706337 63.46258125 -33.3456697 62.87430225 -36.4375 60.3125 C-40.00437915 56.37663336 -39.89101303 52.25353053 -39.82397461 47.18359375 C-39.1820625 42.41487204 -36.79591035 39.46446645 -33.8125 35.8125 C-32.62346663 34.26710501 -31.43467312 32.72152545 -30.24609375 31.17578125 C-29.62331543 30.38510254 -29.00053711 29.59442383 -28.35888672 28.77978516 C-25.09849131 24.59305631 -22.00033005 20.28787638 -18.875 16 C-16.74224039 13.09421085 -14.59577528 10.19936977 -12.4375 7.3125 C-11.72722656 6.34957031 -11.01695313 5.38664062 -10.28515625 4.39453125 C-7.22244971 0.94332071 -4.5530798 0.02367286 0 0 Z " fill="#010202" transform="translate(39.4375,23.6875)"/>
<path d="M0 0 C4.70215177 4.3541747 8.31930747 9.31589666 12.0625 14.5 C13.28163227 16.1777521 14.50165942 17.85485436 15.72265625 19.53125 C16.28871582 20.31113281 16.85477539 21.09101562 17.43798828 21.89453125 C18.72069418 23.62351776 20.06878257 25.3038118 21.43359375 26.96875 C23 29 23 29 23 31 C22.31292969 31.04898438 21.62585937 31.09796875 20.91796875 31.1484375 C20.01691406 31.22320312 19.11585937 31.29796875 18.1875 31.375 C17.29417969 31.44460937 16.40085938 31.51421875 15.48046875 31.5859375 C12.75601501 31.86645036 12.75601501 31.86645036 10 34 C9.54381606 36.67527457 9.54381606 36.67527457 9.62247658 39.87558651 C9.61465334 41.13522431 9.60683009 42.39486212 9.59876978 43.69267076 C9.60525698 45.10354102 9.61202699 46.51441001 9.61904907 47.92527771 C9.61559555 49.41392217 9.61083305 50.90256409 9.60486734 52.3912006 C9.59228544 56.49692715 9.59856016 60.60244587 9.60782599 64.70817339 C9.61458695 69.13020117 9.60414995 73.55219209 9.59588623 77.97421265 C9.58251467 86.643166 9.58544192 95.31204163 9.59412415 103.98099809 C9.60088731 111.0242197 9.60182336 118.06741946 9.5985527 125.11064339 C9.598093 126.11141165 9.59763331 127.1121799 9.59715968 128.14327447 C9.59620054 130.17605122 9.5952279 132.20882796 9.5942419 134.24160469 C9.58567787 153.32364095 9.59553778 172.40563404 9.611643 191.48766322 C9.62504505 207.87436547 9.62272098 224.26100398 9.60888672 240.64770508 C9.59284524 259.65787353 9.5865041 278.6680041 9.59572351 297.67817837 C9.5966792 299.70396586 9.59762231 301.72975335 9.5985527 303.75554085 C9.59901553 304.75237254 9.59947836 305.74920424 9.59995521 306.77624295 C9.60254955 313.81357526 9.59816451 320.85088361 9.59111404 327.8882122 C9.58271464 336.46077775 9.58494614 345.03326084 9.60095628 353.60581689 C9.60886039 357.98284956 9.61189437 362.35974459 9.60200882 366.73677635 C9.59310534 370.739415 9.5979224 374.74178773 9.61394148 378.74440206 C9.61730785 380.19660409 9.61555386 381.64882833 9.60831411 383.10101622 C9.5992613 385.06685308 9.61029267 387.03275239 9.62247658 388.99857235 C9.62296363 390.09298136 9.62345069 391.18739036 9.62395251 392.31496328 C9.79313475 395.00248151 9.79313475 395.00248151 11.29461896 396.85016876 C14.29244478 398.87141428 17.82984715 398.43862496 21.3269043 398.43237305 C22.17590302 398.4425647 23.02490173 398.45275635 23.89962769 398.46325684 C26.70789112 398.49346855 29.51581393 398.5026652 32.32421875 398.51171875 C34.27050416 398.52855938 36.21677865 398.54670878 38.16304016 398.56611633 C43.2872883 398.61368933 48.41149218 398.64345145 53.53588867 398.66955566 C58.76424909 398.69932439 63.9924569 398.74586734 69.22070312 398.79101562 C79.48040664 398.87713192 89.74009397 398.94289009 100 399 C100 404.28 100 409.56 100 415 C64.69 415 29.38 415 -7 415 C-7.01458252 403.53991211 -7.02916504 392.07982422 -7.04418945 380.27246094 C-7.09291349 343.63400805 -7.1563132 306.99559378 -7.22898628 270.35718088 C-7.24025489 264.66927315 -7.25139327 258.98136517 -7.26245117 253.29345703 C-7.26465486 252.16106327 -7.26685854 251.02866952 -7.269129 249.8619608 C-7.30453296 231.50943488 -7.32937958 213.156909 -7.35034702 194.80436155 C-7.37208442 175.98282829 -7.40511515 157.16133947 -7.44870156 138.33984399 C-7.47525385 126.71938506 -7.49292285 115.09898155 -7.49934604 103.47849378 C-7.504589 95.51751167 -7.52076907 87.55659937 -7.54566566 79.59565464 C-7.55971821 74.99777002 -7.56883752 70.40001049 -7.56500816 65.80210304 C-7.56161152 61.59639177 -7.57188374 57.39094819 -7.59323552 53.1852918 C-7.59852753 51.66034084 -7.59871322 50.13536225 -7.59339563 48.61041138 C-7.58692051 46.54367634 -7.59872563 44.47783509 -7.61523914 42.41117477 C-7.61713775 41.26138161 -7.61903635 40.11158845 -7.62099248 38.92695308 C-8.04126393 35.68133192 -8.69655856 34.2932648 -11 32 C-13.72489473 31.30250411 -13.72489473 31.30250411 -16.6875 31.25 C-17.6256958 31.20584961 -18.5638916 31.16169922 -19.53051758 31.11621094 C-20.34544678 31.07786133 -21.16037598 31.03951172 -22 31 C-17.91932927 24.78328817 -13.68518425 18.70184091 -9.3125 12.6875 C-8.74466797 11.90310547 -8.17683594 11.11871094 -7.59179688 10.31054688 C-5.08663846 6.85383943 -2.56794252 3.41043711 0 0 Z " fill="#6A7DD6" transform="translate(39,41)"/>
<path d="M0 0 C0.33 0 0.66 0 1 0 C1 96.36 1 192.72 1 292 C-4.94 292 -10.88 292 -17 292 C-17.12745947 258.2916317 -17.25486129 224.58326318 -17.38218227 190.87489436 C-17.39720311 186.89812293 -17.41222445 182.9213515 -17.42724609 178.94458008 C-17.43023671 178.15285409 -17.43322732 177.36112811 -17.43630856 176.54541043 C-17.48477596 163.71461526 -17.53328334 150.88382024 -17.58180541 138.05302527 C-17.63156779 124.89401654 -17.6812874 111.73500765 -17.73096704 98.5759986 C-17.76163989 90.45181812 -17.79234636 82.32763777 -17.82309544 74.20345757 C-17.84664363 67.98087375 -17.87013239 61.7582897 -17.89359856 55.53570557 C-17.90325402 52.97783717 -17.91292902 50.41996885 -17.92262459 47.8621006 C-17.93581377 44.38179671 -17.94893394 40.90149257 -17.96203613 37.42118835 C-17.96592708 36.39882558 -17.96981803 35.37646281 -17.97382689 34.32311934 C-17.97731028 33.39404637 -17.98079368 32.4649734 -17.98438263 31.5077467 C-17.98742039 30.70387876 -17.99045815 29.90001082 -17.99358797 29.07178324 C-18.0094264 23.95424625 -16.64940692 21.89929285 -13.5 18 C-12.58327581 16.84091778 -11.66793362 15.68074131 -10.75390625 14.51953125 C-10.06192139 13.64288818 -10.06192139 13.64288818 -9.35595703 12.74853516 C-6.62637378 9.22868006 -4.0719647 5.58238885 -1.49609375 1.94921875 C-1.00238281 1.30597656 -0.50867188 0.66273438 0 0 Z " fill="#C3E2FE" transform="translate(448,133)"/>
<path d="M0 0 C0.33 0 0.66 0 1 0 C1 117.81 1 235.62 1 357 C-5 355 -5 355 -8 353 C-8.90784604 350.27646189 -9.12552415 348.71107387 -9.12698364 345.91377258 C-9.12980756 345.07481382 -9.13263147 344.23585506 -9.13554096 343.37147331 C-9.13351264 342.44620401 -9.13148432 341.52093472 -9.12939453 340.56762695 C-9.13196778 339.08651774 -9.13196778 339.08651774 -9.13459301 337.57548714 C-9.13897761 334.2130695 -9.13592241 330.85069979 -9.1328125 327.48828125 C-9.13404669 325.03434735 -9.13561853 322.5804136 -9.13749695 320.1264801 C-9.14113652 312.5778927 -9.13535133 305.02933567 -9.12725878 297.4807539 C-9.12500958 295.32169547 -9.12303467 293.16263696 -9.12115097 291.00357819 C-9.10480371 272.4367765 -9.07358324 253.87002189 -9.03597987 235.30325222 C-9.00690282 220.78714408 -8.99124648 206.27105306 -8.98059416 191.7549206 C-8.96394112 169.2468759 -8.92695176 146.73896686 -8.8646965 124.23099995 C-8.83229104 112.35007552 -8.80828473 100.46925873 -8.80499268 88.58828735 C-8.8020497 78.34243522 -8.78183031 68.0967954 -8.73967606 57.85102659 C-8.7183868 52.54663524 -8.70545722 47.24254677 -8.71381187 41.93811226 C-8.72129826 37.0354505 -8.7057648 32.13342009 -8.67193198 27.23087442 C-8.66369339 25.44470531 -8.6639697 23.65847347 -8.67340493 21.87231028 C-8.684981 19.44389375 -8.66599635 17.01757741 -8.63923645 14.58932495 C-8.64990967 13.88667529 -8.66058289 13.18402562 -8.67157954 12.46008354 C-8.5927886 8.64169946 -8.04791482 7.0605813 -5.64754772 4.02566719 C-3 2 -3 2 0 2 C0 1.34 0 0.68 0 0 Z " fill="#4B60C5" transform="translate(47,77)"/>
<path d="M0 0 C4.64194691 3.98781857 8.14910483 8.94022526 11.8125 13.8125 C12.7087207 14.99489258 12.7087207 14.99489258 13.62304688 16.20117188 C15.08546284 18.13156095 16.54432616 20.06452484 18 22 C21.93625492 18.36799667 24.96629963 14.17113992 28.125 9.875 C29.18866054 8.43382924 30.25370409 6.99367791 31.3203125 5.5546875 C31.78711426 4.92030762 32.25391602 4.28592773 32.73486328 3.63232422 C34 2 34 2 36 0 C42.9273743 -0.67039106 42.9273743 -0.67039106 46.5 1.5625 C48.58946872 4.95788667 48.39274152 7.04803846 48 11 C46.58312009 13.52309149 45.25738187 15.56368736 43.5 17.8125 C43.05164795 18.41562012 42.6032959 19.01874023 42.14135742 19.64013672 C38.71125096 24.21563531 35.07569989 28.61871819 31.30078125 32.9140625 C29.77775915 34.86420323 29.77775915 34.86420323 30.25024414 36.89550781 C31.08945788 39.25109961 32.14866535 40.79617438 33.6953125 42.7578125 C34.24348633 43.46131836 34.79166016 44.16482422 35.35644531 44.88964844 C35.94006836 45.62731445 36.52369141 46.36498047 37.125 47.125 C38.31116256 48.65266312 39.49606626 50.18130454 40.6796875 51.7109375 C41.25170898 52.44795898 41.82373047 53.18498047 42.41308594 53.94433594 C44.39968835 56.51775014 46.34683833 59.11424053 48.25 61.75 C48.77078125 62.46671875 49.2915625 63.1834375 49.828125 63.921875 C51.18046447 66.32002366 51.71545566 68.26570669 52 71 C50.37844371 74.48634601 49.23546708 75.84302194 46 78 C42.57937407 78.13156254 40.1398538 77.92700641 37.41015625 75.70703125 C35.46902803 73.5570775 33.73943205 71.31816501 32 69 C31.52272461 68.36884277 31.04544922 67.73768555 30.55371094 67.08740234 C27.41424802 62.93449539 24.30141509 58.76319872 21.2175293 54.56884766 C19.94501945 52.86162353 19.94501945 52.86162353 18 51 C17.5968457 51.54938232 17.19369141 52.09876465 16.77832031 52.66479492 C14.9366419 55.17316938 13.09333607 57.6803435 11.25 60.1875 C10.29867187 61.48397461 10.29867187 61.48397461 9.328125 62.80664062 C-0.26305197 75.84464682 -0.26305197 75.84464682 -5 77 C-7.75493163 76.80321917 -9.43139165 76.36553394 -11.75 74.875 C-13.71400266 71.92899601 -13.85497712 69.51680481 -14 66 C-12.6763459 63.49841518 -11.49047909 61.66560522 -9.75 59.5 C-9.30414551 58.9126709 -8.85829102 58.3253418 -8.39892578 57.72021484 C-7.44611203 56.46512002 -6.48573048 55.21574079 -5.51855469 53.97167969 C-2.90153325 50.57375924 -0.39851629 47.09255361 2.125 43.625 C3.747564 41.41486299 5.37378229 39.20745142 7 37 C5.01843251 33.58011261 2.8861422 30.43181723 0.4609375 27.3125 C-0.20164063 26.44882813 -0.86421875 25.58515625 -1.546875 24.6953125 C-2.93520954 22.89465304 -4.32846952 21.09778072 -5.7265625 19.3046875 C-6.3865625 18.44101563 -7.0465625 17.57734375 -7.7265625 16.6875 C-8.63269287 15.51767578 -8.63269287 15.51767578 -9.55712891 14.32421875 C-11.12278338 11.80221695 -11.69233222 9.94007087 -12 7 C-10.16366664 0.41980547 -6.5554476 -0.79117471 0 0 Z " fill="#000000" transform="translate(226,90)"/>
<path d="M0 0 C4.35694704 1.46566417 7.42126711 3.7039871 11 6.5625 C17.4761702 11.6715519 24.17167729 16.37328052 31 21 C29.88759834 24.33720497 29.35276231 24.7316592 26.5703125 26.63671875 C25.86205322 27.12817383 25.15379395 27.61962891 24.42407227 28.12597656 C23.28603149 28.89893066 23.28603149 28.89893066 22.125 29.6875 C20.57367311 30.75832453 19.02289264 31.8299411 17.47265625 32.90234375 C16.71098145 33.42683105 15.94930664 33.95131836 15.16455078 34.49169922 C11.37856816 37.12984502 7.69328098 39.90061948 4.00390625 42.671875 C2 44 2 44 0 44 C-0.05607422 42.96939453 -0.05607422 42.96939453 -0.11328125 41.91796875 C-0.17902344 41.01691406 -0.24476563 40.11585938 -0.3125 39.1875 C-0.37050781 38.29417969 -0.42851562 37.40085937 -0.48828125 36.48046875 C-1.09529053 33.53809553 -1.6087424 32.77747771 -4 31 C-6.78375577 30.54327988 -6.78375577 30.54327988 -9.984375 30.61181641 C-11.21575195 30.60235992 -12.44712891 30.59290344 -13.71582031 30.5831604 C-15.06055014 30.58853011 -16.40527704 30.59468306 -17.75 30.6015625 C-19.1285823 30.59954153 -20.50716355 30.5966299 -21.88574219 30.59286499 C-24.77419214 30.58844265 -27.66236367 30.59486942 -30.55078125 30.60888672 C-34.25329754 30.62597901 -37.95516146 30.61613728 -41.65765381 30.59816933 C-44.50411902 30.58732879 -47.35042955 30.59077897 -50.19689941 30.5985527 C-51.56205319 30.60055399 -52.92722102 30.59809792 -54.2923584 30.59111404 C-56.2001112 30.5834961 -58.10791324 30.59716594 -60.015625 30.61181641 C-61.10133789 30.61420319 -62.18705078 30.61658997 -63.30566406 30.61904907 C-65.99455582 30.79074905 -65.99455582 30.79074905 -67.81152344 32.27426147 C-69.3050609 34.22715334 -69.3050609 34.22715334 -70 38 C-76.93 38 -83.86 38 -91 38 C-91 30.08 -91 22.16 -91 14 C-88.38022217 13.98018066 -85.76044434 13.96036133 -83.0612793 13.93994141 C-74.41585288 13.87310344 -65.77054797 13.79546306 -57.12526226 13.71247292 C-51.88244472 13.66247794 -46.63964764 13.61614819 -41.39672852 13.578125 C-36.33920284 13.54131264 -31.28184708 13.49496376 -26.22446632 13.44193649 C-24.29275295 13.42337099 -22.36100313 13.40827104 -20.42923546 13.39665604 C-17.72828053 13.37983045 -15.02771657 13.35080453 -12.3269043 13.31884766 C-11.12281166 13.31560738 -11.12281166 13.31560738 -9.89439392 13.31230164 C-6.07532613 13.2543871 -4.25340934 13.16893956 -1 11 C-0.41651248 8.3443272 -0.41651248 8.3443272 -0.3125 5.375 C-0.24675781 4.37210937 -0.18101562 3.36921875 -0.11328125 2.3359375 C-0.07589844 1.56507813 -0.03851563 0.79421875 0 0 Z " fill="#697CD3" transform="translate(464,426)"/>
<path d="M0 0 C1.83884766 -0.03867188 1.83884766 -0.03867188 3.71484375 -0.078125 C7.26411932 0.26976199 8.62685918 0.69669537 11.0625 3.25 C12.16623378 7.22344161 12.47793583 9.33999772 10.75 13.125 C9.0625 15.25 9.0625 15.25 7.0625 16.25 C5.35547265 16.31996014 3.64581997 16.33440154 1.9375 16.3125 C0.32875 16.291875 -1.28 16.27125 -2.9375 16.25 C-2.9375 21.2 -2.9375 26.15 -2.9375 31.25 C-0.83375 31.12625 -0.83375 31.12625 1.3125 31 C4.58144456 31.0102797 5.76046979 31.05368036 8.5625 32.875 C10.42171047 35.81874992 10.9913308 37.76270927 11.0625 41.25 C8.93206522 45.81521739 8.93206522 45.81521739 6.0625 47.25 C4.52226004 47.31950541 2.97915012 47.33452357 1.4375 47.3125 C0.21160156 47.29896484 0.21160156 47.29896484 -1.0390625 47.28515625 C-1.66554687 47.27355469 -2.29203125 47.26195312 -2.9375 47.25 C-2.92639694 47.92794113 -2.91529388 48.60588226 -2.90385437 49.30436707 C-2.79323213 56.36073634 -2.71782012 63.4168593 -2.6628418 70.47387695 C-2.63769843 73.10744227 -2.60357916 75.74093782 -2.56030273 78.37426758 C-2.4996479 82.15984309 -2.4712873 85.94449598 -2.44921875 89.73046875 C-2.42341232 90.90772018 -2.3976059 92.08497162 -2.37101746 93.29789734 C-2.36789278 102.40548117 -2.36789278 102.40548117 -5.28051758 105.4934082 C-7.9375 107.25 -7.9375 107.25 -10.9375 107.875 C-14.02662095 107.23143314 -15.72634895 106.41379205 -17.89657593 104.11294556 C-20.29133731 99.8270325 -19.53017844 94.49291567 -19.42578125 89.73046875 C-19.41516914 87.90990715 -19.41516914 87.90990715 -19.40434265 86.05256653 C-19.37637889 82.18024788 -19.31363091 78.30938083 -19.25 74.4375 C-19.22491996 71.81056777 -19.20210629 69.18361286 -19.18164062 66.55664062 C-19.1265453 60.1205994 -19.04289655 53.68540341 -18.9375 47.25 C-20.34902344 47.29640625 -20.34902344 47.29640625 -21.7890625 47.34375 C-24.9375 47.25 -24.9375 47.25 -27.3125 45.75 C-29.28539171 42.71478198 -29.57721021 40.72802406 -29.390625 37.15625 C-28.9375 35.25 -28.9375 35.25 -26.75 32.75 C-23.74161625 31.14552867 -22.26079416 31.11595116 -18.9375 31.25 C-18.98390625 30.0434375 -19.0303125 28.836875 -19.078125 27.59375 C-19.11567287 25.97919164 -19.15206977 24.36460622 -19.1875 22.75 C-19.22101563 21.95851563 -19.25453125 21.16703125 -19.2890625 20.3515625 C-19.38529489 14.48138667 -18.24325055 10.14754209 -14.9375 5.25 C-10.14807552 0.69420599 -6.48661269 0.08167823 0 0 Z " fill="#000000" transform="translate(157.9375,71.75)"/>
<path d="M0 0 C31.35 0 62.7 0 95 0 C95 5.28 95 10.56 95 16 C63.65 16 32.3 16 0 16 C0 10.72 0 5.44 0 0 Z " fill="#697BD2" transform="translate(264,440)"/>
<path d="M0 0 C31.35 0 62.7 0 95 0 C95 5.28 95 10.56 95 16 C63.65 16 32.3 16 0 16 C0 10.72 0 5.44 0 0 Z " fill="#697BD2" transform="translate(154,440)"/>
<path d="M0 0 C1.94941018 4.3575051 0.48617477 8.76459223 -0.68359375 13.2109375 C-5.27915903 32.07694234 -4.16122409 52.54423011 0.0625 71.375 C1.63401703 79.31989164 1.63401703 79.31989164 -0.5625 83.375 C-3.21368507 85.6075769 -4.48850027 86.29087806 -7.9375 86.375 C-10.5625 85.8125 -10.5625 85.8125 -12.9375 84.375 C-15.37308524 80.18653144 -16.60368325 76.23086505 -17.5625 71.5 C-17.92214844 69.77136719 -17.92214844 69.77136719 -18.2890625 68.0078125 C-19.95289394 58.68634721 -20.21888798 49.50678191 -20.25 40.0625 C-20.25261841 39.30610229 -20.25523682 38.54970459 -20.25793457 37.77038574 C-20.26889245 8.24203363 -20.26889245 8.24203363 -11.9375 -2.625 C-7.77666975 -4.84410947 -3.39973944 -2.85139437 0 0 Z " fill="#000000" transform="translate(202.9375,89.625)"/>
<path d="M0 0 C4.16148787 4.05197503 5.10629754 8.1927153 6.1875 13.6875 C6.35475586 14.49767578 6.52201172 15.30785156 6.69433594 16.14257812 C7.82407577 21.75745276 8.80115494 27.2666341 9 33 C9.07734375 34.89492187 9.07734375 34.89492187 9.15625 36.828125 C10.19943667 75.40857246 10.19943667 75.40857246 1.12109375 86.2421875 C-1 88 -1 88 -4.5 88.5 C-8 88 -8 88 -10.4375 86.5625 C-14.63987514 79.67060476 -11.20229162 70.31025103 -9.734375 62.85546875 C-6.79339997 47.41534987 -6.90264417 30.82548099 -11.125 15.625 C-12.15978505 11.33803336 -12.8233555 7.37407611 -12 3 C-8.4408987 -1.52976529 -5.35199092 -1.65425174 0 0 Z " fill="#000000" transform="translate(299,85)"/>
<path d="M0 0 C4.70215177 4.3541747 8.31930747 9.31589666 12.0625 14.5 C13.28163227 16.1777521 14.50165942 17.85485436 15.72265625 19.53125 C16.28871582 20.31113281 16.85477539 21.09101562 17.43798828 21.89453125 C18.72069418 23.62351776 20.06878257 25.3038118 21.43359375 26.96875 C23 29 23 29 23 31 C20.36 31 17.72 31 15 31 C14.46890625 30.01644531 13.9378125 29.03289062 13.390625 28.01953125 C10.42852845 22.83325022 6.72296554 18.23170789 3.0703125 13.52148438 C2.54695313 12.83763672 2.02359375 12.15378906 1.484375 11.44921875 C1.00709961 10.83393311 0.52982422 10.21864746 0.03808594 9.5847168 C-1 8 -1 8 -1 6 C-1.99 5.67 -2.98 5.34 -4 5 C-2.68 3.35 -1.36 1.7 0 0 Z " fill="#4C62C7" transform="translate(39,41)"/>
<path d="M0 0 C3.32274404 2.45594125 4.77618008 3.9256644 5.625 8 C4.77618008 12.0743356 3.32274404 13.54405875 0 16 C-3.65126535 16.67064058 -5.23686002 16.48198314 -8.375 14.5 C-10.65416433 10.99359333 -10.81753559 8.07099353 -10 4 C-7.317936 -0.12625231 -4.78913194 -0.87963648 0 0 Z " fill="#080909" transform="translate(259,352)"/>
<path d="M0 0 C3.5 0.5625 3.5 0.5625 5.9375 2.125 C8.13021887 5.54564143 8.13007693 7.57201279 7.5 11.5625 C5.21408345 14.63215937 3.74497671 16.25125582 0 17.1875 C-3.70864386 16.26033903 -5.20985284 14.5724077 -7.5 11.5625 C-8.21588388 7.74445263 -7.79055839 6.09712745 -5.9375 2.6875 C-3.5 0.5625 -3.5 0.5625 0 0 Z " fill="#09090A" transform="translate(146.5,388.4375)"/>
<path d="M0 0 C2.4375 1.5625 2.4375 1.5625 4 4 C4.72468526 8.42863214 4.49454049 10.28066838 1.9375 14 C-1 16 -1 16 -4.625 16.0625 C-8 15 -8 15 -9.9375 13.375 C-11.43699866 10.02317947 -11.45377473 7.63019782 -11 4 C-8.11188513 -0.5054592 -5.11821063 -0.73117295 0 0 Z " fill="#080909" transform="translate(260,389)"/>
<path d="M0 0 C4.99268902 1.47931526 4.99268902 1.47931526 6.375 4 C6.76809578 7.09562931 6.99838668 9.04336605 6.375 12 C4.3125 14.5625 4.3125 14.5625 1.375 16 C-2.4387751 16 -4.64924548 15.84985071 -7.5625 13.3125 C-8.9863395 10.2135552 -9.17653827 8.37817188 -8.625 5 C-5.91953265 1.14675862 -4.77773264 0 0 0 Z " fill="#070808" transform="translate(147.625,352)"/>
<path d="M0 0 C3.36046048 1.21548571 4.8814778 2.13662225 6.9375 5.0625 C7.58000722 8.83722994 7.20586859 10.56870179 5.375 13.9375 C2.9375 16.0625 2.9375 16.0625 -0.5625 16.625 C-4.0625 16.0625 -4.0625 16.0625 -6.5 14.5 C-8.69271887 11.07935857 -8.69257693 9.05298721 -8.0625 5.0625 C-5.56394946 1.53513453 -4.39937831 0.08978323 0 0 Z " fill="#080809" transform="translate(257.0625,314.9375)"/>
<path d="M0 0 C2.375 1.5 2.375 1.5 4 4 C4.81753559 8.07099353 4.65416433 10.99359333 2.375 14.5 C-0.72140596 16.45562482 -2.39853135 16.60024477 -6 16 C-8.375 14.5 -8.375 14.5 -10 12 C-10.81753559 7.92900647 -10.65416433 5.00640667 -8.375 1.5 C-5.27859404 -0.45562482 -3.60146865 -0.60024477 0 0 Z " fill="#060607" transform="translate(369,352)"/>
<path d="M0 0 C2.29076216 2.90750582 2.24369345 5.26775792 2.078125 8.8984375 C1.625 11.0625 1.625 11.0625 -0.5625 13.625 C-3.60876049 15.18197758 -5.02912407 15.74883353 -8.375 15.0625 C-10.6875 13.625 -10.6875 13.625 -12.375 11.0625 C-12.92916729 7.96140224 -12.95018608 5.16146173 -12.375 2.0625 C-9.13782251 -2.04622527 -4.60727343 -1.81866057 0 0 Z " fill="#060707" transform="translate(371.375,279.9375)"/>
<path d="M0 0 C2.4375 0.9375 2.4375 0.9375 4 3 C4.62715448 6.12393929 4.64685041 8.87824365 4 12 C1.875 14.625 1.875 14.625 -1 16 C-4.18496861 15.93630063 -6.11407175 15.68325127 -8.65625 13.72265625 C-10.3688019 11.52720455 -10.40259522 10.25952197 -10.375 7.5 C-10.38273437 6.7265625 -10.39046875 5.953125 -10.3984375 5.15625 C-9.32923403 -0.63002759 -5.10614046 -0.53748847 0 0 Z " fill="#060707" transform="translate(369,242)"/>
<path d="M0 0 C2.28993609 2.90645734 2.24592555 5.26500469 2.07421875 8.89453125 C1.625 11.0625 1.625 11.0625 -0.5 13.6875 C-4.05482064 15.38763161 -5.65787456 15.27460612 -9.375 14.0625 C-11.4893595 12.42799514 -12.27670976 11.55129472 -12.80859375 8.90625 C-12.81906064 2.62611543 -12.81906064 2.62611543 -10.75 0 C-6.86095695 -1.53514857 -3.88904305 -1.53514857 0 0 Z " fill="#050606" transform="translate(371.375,389.9375)"/>
<path d="M0 0 C1.875 1.0625 1.875 1.0625 3 3 C3.75471698 9.79245283 3.75471698 9.79245283 1.4375 13.5 C-1.91034349 15.56021138 -4.14014247 15.49125459 -8 15 C-10.13429298 13.41537412 -10.89163868 12.49033499 -11.46875 9.87890625 C-11.55234657 3.68231047 -11.55234657 3.68231047 -8.875 0.375 C-5.32017936 -1.32513161 -3.71712544 -1.21210612 0 0 Z " fill="#060606" transform="translate(370,316)"/>
<path d="M0 0 C4.35694704 1.46566417 7.42126711 3.7039871 11 6.5625 C17.4761702 11.6715519 24.17167729 16.37328052 31 21 C29.88759834 24.33720497 29.35276231 24.7316592 26.5703125 26.63671875 C25.86205322 27.12817383 25.15379395 27.61962891 24.42407227 28.12597656 C23.66537842 28.6412793 22.90668457 29.15658203 22.125 29.6875 C20.57367311 30.75832453 19.02289264 31.8299411 17.47265625 32.90234375 C16.71098145 33.42683105 15.94930664 33.95131836 15.16455078 34.49169922 C11.37856816 37.12984502 7.69328098 39.90061948 4.00390625 42.671875 C2 44 2 44 0 44 C0 41.03 0 38.06 0 35 C0.33 35 0.66 35 1 35 C1 36.98 1 38.96 1 41 C8.39416218 35.74516002 15.77704474 30.48944599 23 25 C23.0281014 21.27656503 23.03199207 19.05892168 20.37207031 16.32958984 C18.17803981 14.67815244 15.9382127 13.16727577 13.625 11.6875 C12.84382813 11.16349609 12.06265625 10.63949219 11.2578125 10.09960938 C9.18411788 8.71300364 7.09549524 7.35330676 5 6 C4.01 5.34 3.02 4.68 2 4 C1.67 5.65 1.34 7.3 1 9 C0.67 9 0.34 9 0 9 C0 6.03 0 3.06 0 0 Z " fill="#4A60C2" transform="translate(464,426)"/>
<path d="M0 0 C0.33 0.99 0.66 1.98 1 3 C-1.28765111 4.67243423 -3.57973892 6.33806927 -5.875 8 C-6.52597656 8.47695313 -7.17695313 8.95390625 -7.84765625 9.4453125 C-12.7734375 13 -12.7734375 13 -15 13 C-15 10.03 -15 7.06 -15 4 C-14.67 4 -14.34 4 -14 4 C-14 5.98 -14 7.96 -14 10 C-9.38 6.7 -4.76 3.4 0 0 Z " fill="#4B61C5" transform="translate(479,457)"/>
<path d="M0 0 C3.83663072 1.34929464 6.65172569 3.07751025 9.8125 5.625 C10.99779297 6.57246094 10.99779297 6.57246094 12.20703125 7.5390625 C12.79871094 8.02117187 13.39039063 8.50328125 14 9 C13.67 9.99 13.34 10.98 13 12 C9.37 9.36 5.74 6.72 2 4 C1.67 5.65 1.34 7.3 1 9 C0.67 9 0.34 9 0 9 C0 6.03 0 3.06 0 0 Z " fill="#4E64C8" transform="translate(464,426)"/>
<path d="M0 0 C2.4375 0.8125 2.4375 0.8125 5 2 C5.33 2.99 5.66 3.98 6 5 C4.68 4.67 3.36 4.34 2 4 C1.67 5.65 1.34 7.3 1 9 C0.67 9 0.34 9 0 9 C0 6.03 0 3.06 0 0 Z " fill="#3F4F9B" transform="translate(464,426)"/>
<path d="M0 0 C0.33 0 0.66 0 1 0 C1 1.98 1 3.96 1 6 C2.32 5.34 3.64 4.68 5 4 C5 4.99 5 5.98 5 7 C3.35 7.66 1.7 8.32 0 9 C0 6.03 0 3.06 0 0 Z " fill="#3F4E98" transform="translate(464,461)"/>
</svg>
