<?xml version="1.0" encoding="UTF-8"?>
<svg version="1.1" xmlns="http://www.w3.org/2000/svg" width="512" height="512">
<path d="M0 0 C0.76727921 -0.00979385 1.53455841 -0.01958771 2.3250885 -0.02967834 C19.81630618 -0.20681827 36.65003166 0.10484519 53.75 4.23828125 C54.64912109 4.45258789 55.54824219 4.66689453 56.47460938 4.88769531 C87.90166632 12.61510695 115.56083744 27.94781999 139.75 49.23828125 C140.90628906 50.21087891 140.90628906 50.21087891 142.0859375 51.203125 C146.79999946 55.18569459 150.79430467 59.51094104 154.75 64.23828125 C155.51183594 65.11226563 156.27367187 65.98625 157.05859375 66.88671875 C190.07254993 105.30857727 202.75 151.18726478 202.75 201.23828125 C167.44 201.23828125 132.13 201.23828125 95.75 201.23828125 C95.75 216.74828125 95.75 232.25828125 95.75 248.23828125 C90.75 253.23828125 90.75 253.23828125 87.25 254.23828125 C83.3073648 254.23828125 81.7616359 253.73363671 78.75 251.23828125 C76.91371056 248.2594217 76.50386088 246.03560171 76.52294922 242.56152344 C76.52310028 241.64087097 76.52325134 240.72021851 76.52340698 239.77166748 C76.53372955 238.78611877 76.54405212 237.80057007 76.5546875 236.78515625 C76.55893234 235.26211884 76.55893234 235.26211884 76.56326294 233.70831299 C76.57444999 230.46818209 76.59955209 227.22832849 76.625 223.98828125 C76.6350317 221.79036858 76.64415722 219.59245157 76.65234375 217.39453125 C76.67268215 212.00892202 76.71183411 206.62391173 76.75 201.23828125 C69.16 201.23828125 61.57 201.23828125 53.75 201.23828125 C53.75 230.27828125 53.75 259.31828125 53.75 289.23828125 C55.4 289.56828125 57.05 289.89828125 58.75 290.23828125 C67.68969817 295.37128714 73.59321048 302.78755381 76.4375 312.61328125 C77.56692619 322.10046127 76.35983472 330.56320455 71.125 338.79296875 C65.32127456 345.97507899 57.90191129 350.79317005 48.62109375 351.8125 C38.19460055 352.45865878 29.67494049 350.37682054 21.6015625 343.375 C14.89374271 336.31339225 11.61556261 327.96258569 11.75 318.23828125 C12.77614647 307.83473472 16.66359146 299.90661397 24.75 293.23828125 C28.01834701 290.96318959 30.65579671 289.23828125 34.75 289.23828125 C34.75 260.19828125 34.75 231.15828125 34.75 201.23828125 C26.5 201.23828125 18.25 201.23828125 9.75 201.23828125 C9.77320313 204.35652344 9.79640625 207.47476563 9.8203125 210.6875 C9.83591658 213.71247959 9.84805703 216.73745466 9.85986328 219.76245117 C9.86991169 221.86240653 9.88355266 223.96234794 9.90087891 226.06225586 C9.92517801 229.08320565 9.93649482 232.1039702 9.9453125 235.125 C9.95563507 236.06163986 9.96595764 236.99827972 9.97659302 237.96330261 C9.97751782 243.35391781 9.66838047 247.41119424 6.5625 251.98828125 C3.68274549 253.97431884 1.20362522 254.11919073 -2.25 254.23828125 C-5.82387602 252.64989191 -7.06089572 251.52193767 -9.25 248.23828125 C-9.49050903 246.09321594 -9.49050903 246.09321594 -9.47705078 243.58325195 C-9.47682419 242.17212883 -9.47682419 242.17212883 -9.47659302 240.73249817 C-9.46627045 239.7199144 -9.45594788 238.70733063 -9.4453125 237.6640625 C-9.4424826 236.62509323 -9.43965271 235.58612396 -9.43673706 234.51567078 C-9.42553282 231.19392428 -9.40042764 227.8724464 -9.375 224.55078125 C-9.36497052 222.3001341 -9.35584462 220.04948273 -9.34765625 217.79882812 C-9.3272934 212.27845883 -9.28814473 206.75867108 -9.25 201.23828125 C-17.17 201.23828125 -25.09 201.23828125 -33.25 201.23828125 C-33.25 230.27828125 -33.25 259.31828125 -33.25 289.23828125 C-31.6 289.56828125 -29.95 289.89828125 -28.25 290.23828125 C-19.76494971 294.30091134 -14.50675536 301.03793194 -10.8125 309.55078125 C-9.198878 320.1289699 -9.47566181 329.52584538 -15.828125 338.45703125 C-20.97153458 344.66619236 -26.40466703 349.1012013 -34.25 351.23828125 C-45.34977272 352.23679637 -54.9844866 351.58775327 -64.0625 344.48828125 C-70.04090769 338.90467407 -73.80474 331.89797894 -74.5859375 323.72265625 C-74.70373379 312.46133086 -73.09633712 304.35057974 -65.25390625 296 C-61.24112813 292.47219702 -56.69971041 289.23828125 -51.25 289.23828125 C-51.25 260.19828125 -51.25 231.15828125 -51.25 201.23828125 C-94.15 201.23828125 -137.05 201.23828125 -181.25 201.23828125 C-181.25 149.53150078 -168.08841752 102.22108505 -132.359375 63.53515625 C-130.47100188 61.47892774 -128.67019417 59.37541717 -126.875 57.23828125 C-113.95949571 42.56556549 -97.30031199 31.22890598 -80.07470703 22.20410156 C-78.39677161 21.3159677 -76.74194812 20.38452629 -75.08984375 19.44921875 C-52.77210738 7.33624659 -25.42909302 0.26999742 0 0 Z " fill="#FDA723" transform="translate(245.25,151.76171875)"/>
<path d="M0 0 C1.1819696 0.00214508 1.1819696 0.00214508 2.38781738 0.0043335 C14.98747266 0.06081273 26.37067362 1.25839846 38.3125 5.5 C39.70787433 5.95194048 41.10370538 6.40247336 42.5 6.8515625 C57.0449379 11.73219337 69.86604011 19.30159648 81.3125 29.5 C82.14007813 30.19609375 82.96765625 30.8921875 83.8203125 31.609375 C94.76091202 41.00662976 103.29552629 51.91423652 110.3125 64.5 C111.22128906 66.11455078 111.22128906 66.11455078 112.1484375 67.76171875 C121.80635303 85.91775646 125.3125 103.93455161 125.3125 124.5 C97.5925 124.5 69.8725 124.5 41.3125 124.5 C40.3225 120.045 40.3225 120.045 39.3125 115.5 C37.31292103 108.29772505 34.69791716 103.09971796 29.5078125 97.66796875 C28.3125 95.5 28.3125 95.5 29.04516602 92.70947266 C30.27650387 89.59115876 31.68473479 86.86067215 33.39453125 83.98046875 C34.29848633 82.44616211 34.29848633 82.44616211 35.22070312 80.88085938 C35.84912109 79.82705078 36.47753906 78.77324219 37.125 77.6875 C39.52715134 73.62869256 41.92388292 69.56678785 44.3125 65.5 C44.82280762 64.63761719 45.33311523 63.77523437 45.85888672 62.88671875 C46.31150879 62.10296875 46.76413086 61.31921875 47.23046875 60.51171875 C47.82057739 59.49984497 47.82057739 59.49984497 48.42260742 58.4675293 C50.01172758 54.95402604 49.83662143 52.29988039 49.3125 48.5 C47.7280413 46.35777235 46.80801427 45.60950592 44.19140625 45.03125 C43.42699219 45.0209375 42.66257812 45.010625 41.875 45 C41.11316406 44.9690625 40.35132813 44.938125 39.56640625 44.90625 C35.42440179 45.99738462 33.60017 50.03170527 31.453125 53.52685547 C30.51726562 55.18031982 30.51726562 55.18031982 29.5625 56.8671875 C29.05251465 57.76390671 29.05251465 57.76390671 28.53222656 58.67874146 C27.45487802 60.57520012 26.383579 62.47499479 25.3125 64.375 C24.5941533 65.6421558 23.87540662 66.90908493 23.15625 68.17578125 C21.82563365 70.52058782 20.49782107 72.86689671 19.171875 75.21435547 C17.22843925 78.64854118 15.27234076 82.07515658 13.3125 85.5 C12.70365967 85.47905273 12.09481934 85.45810547 11.4675293 85.43652344 C-3.80464819 84.97999065 -15.36821012 84.91423516 -27.46484375 95.3046875 C-35.66399947 103.40297487 -39.08416175 113.27663222 -40.6875 124.5 C-68.4075 124.5 -96.1275 124.5 -124.6875 124.5 C-124.6875 107.90441176 -124.6875 107.90441176 -123.625 101.8125 C-123.49633545 101.06830811 -123.3676709 100.32411621 -123.23510742 99.55737305 C-117.17831567 67.80148462 -97.01132646 39.30340356 -70.6328125 21.06640625 C-61.35424553 14.90467656 -51.53241078 9.92158159 -41.0625 6.125 C-40.1336499 5.78505005 -40.1336499 5.78505005 -39.18603516 5.43823242 C-26.27953801 1.05753598 -13.51452105 -0.07955594 0 0 Z " fill="#D2FEFE" transform="translate(255.6875,218.5)"/>
<path d="M0 0 C0.89912109 0.21430664 1.79824219 0.42861328 2.72460938 0.64941406 C34.0979854 8.36362642 61.89552111 23.66093221 86 45 C81.12275563 50.8797505 75.86113122 56.26880817 70.4453125 61.65234375 C69.54376434 62.55247696 68.64221619 63.45261017 67.71334839 64.38002014 C65.33801783 66.75072823 62.96054595 69.11924515 60.58197021 71.48669434 C58.14655283 73.91180728 55.71403088 76.33982085 53.28125 78.76757812 C48.52347231 83.51437128 43.7628462 88.25829281 39 93 C38.46523544 92.59619614 37.93047089 92.19239227 37.37950134 91.77635193 C36.67024002 91.24228226 35.9609787 90.70821259 35.23022461 90.15795898 C34.53046005 89.63040512 33.8306955 89.10285126 33.10972595 88.55931091 C14.5651942 74.85293795 -9.35675262 64.01312807 -32.73046875 63.76171875 C-33.474142 63.7519249 -34.21781525 63.74213104 -34.98402405 63.73204041 C-57.3031244 63.36750932 -57.3031244 63.36750932 -79 68 C-80.00135986 68.32145996 -80.00135986 68.32145996 -81.02294922 68.64941406 C-95.14164539 73.23223678 -107.89076699 79.89114834 -119.51171875 89.1171875 C-121.64893743 90.73436082 -123.6008656 91.85235318 -126 93 C-126.43231934 92.59273682 -126.86463867 92.18547363 -127.31005859 91.76586914 C-134.64781963 84.85784949 -141.98302942 77.95527392 -149.50390625 71.24609375 C-152.57201235 68.4852784 -155.59825161 65.68098499 -158.625 62.875 C-163.34643495 58.50046569 -168.11450891 54.19178088 -173 50 C-176.32759923 51.55194754 -178.48580485 53.30621949 -181 56 C-181.66 55.67 -182.32 55.34 -183 55 C-155.22624233 26.56144494 -120.77775731 7.62177694 -82 -1 C-81.28489258 -1.16516113 -80.56978516 -1.33032227 -79.83300781 -1.50048828 C-54.58264857 -7.07771473 -25.00268935 -6.04369643 0 0 Z " fill="#FEA721" transform="translate(299,156)"/>
<path d="M0 0 C7.66887661 6.52774777 13.62354151 13.19975112 18.1875 22.1875 C18.50928223 22.81914063 18.83106445 23.45078125 19.16259766 24.1015625 C23.62337528 33.40526793 25.31225634 42.47839481 25.1875 52.75 C25.19910156 53.70519531 25.21070313 54.66039062 25.22265625 55.64453125 C25.15693406 71.83409658 18.25926096 87.57113142 7.09179688 99.21875 C-6.28382558 112.46593712 -22.24564471 119.42076366 -41.0625 119.6875 C-58.99106368 119.5479781 -75.79446883 112.84264552 -88.5 100.1328125 C-103.24593805 84.31522198 -107.87430816 67.99593426 -107.49609375 46.93359375 C-106.82741755 30.08350848 -98.81168858 15.15447316 -86.71289062 3.62255859 C-62.2619265 -18.37861303 -26.13954296 -19.91584226 0 0 Z " fill="#1C9A4E" transform="translate(487.1875,100.75)"/>
<path d="M0 0 C13.23651221 11.20338393 22.50576629 25.76293074 24.75 43.1875 C25.98185534 63.41891244 22.32379813 81.16170372 8.8359375 96.94921875 C-3.12970137 109.78875259 -18.3798677 118.33972638 -36.1484375 119.42578125 C-54.39716809 119.88179502 -71.76366948 115.49045132 -85.625 102.9375 C-98.00281248 91.14573905 -106.85595516 76.093631 -107.5859375 58.76953125 C-107.90391786 38.55432087 -104.04794034 21.6665846 -89.71606445 6.44067383 C-65.42653742 -18.01239151 -27.44188361 -20.97761012 0 0 Z " fill="#FE3D1A" transform="translate(107.25,100.8125)"/>
<path d="M0 0 C12.62219719 10.48948111 20.99448896 24.98436009 23.578125 41.1953125 C25.26838789 60.01006299 22.29418131 77.73569352 10.40625 92.98046875 C8.21387056 95.48658525 5.94454816 97.85379906 3.578125 100.1953125 C2.98773438 100.81921875 2.39734375 101.443125 1.7890625 102.0859375 C-10.65322692 114.25416768 -28.35835547 118.73444181 -45.25952148 118.61547852 C-63.01868961 118.06011638 -77.99744416 110.75191814 -90.421875 98.1953125 C-91.04578125 97.60492188 -91.6696875 97.01453125 -92.3125 96.40625 C-104.65603615 83.78470628 -108.91769463 66.37376819 -108.77172852 49.31982422 C-108.31367554 31.18586157 -101.05284267 16.38214776 -88.62890625 3.30859375 C-64.0720854 -19.99158808 -26.42012191 -19.68725213 0 0 Z " fill="#FE9B01" transform="translate(298.421875,22.8046875)"/>
<path d="M0 0 C6.27 0 12.54 0 19 0 C19 29.04 19 58.08 19 88 C20.65 88.33 22.3 88.66 24 89 C32.93969817 94.13300589 38.84321048 101.54927256 41.6875 111.375 C42.81692619 120.86218002 41.60983472 129.3249233 36.375 137.5546875 C30.57127456 144.73679774 23.15191129 149.5548888 13.87109375 150.57421875 C3.44460055 151.22037753 -5.07505951 149.13853929 -13.1484375 142.13671875 C-19.85625729 135.075111 -23.13443739 126.72430444 -23 117 C-21.97385353 106.59645347 -18.08640854 98.66833272 -10 92 C-6.73165299 89.72490834 -4.09420329 88 0 88 C0 58.96 0 29.92 0 0 Z " fill="#FE3D19" transform="translate(280,353)"/>
<path d="M0 0 C5.94 0 11.88 0 18 0 C18 29.04 18 58.08 18 88 C19.65 88.33 21.3 88.66 23 89 C31.48505029 93.06263009 36.74324464 99.79965069 40.4375 108.3125 C42.051122 118.89068865 41.77433819 128.28756413 35.421875 137.21875 C30.27846542 143.42791111 24.84533297 147.86292005 17 150 C5.90022728 150.99851512 -3.7344866 150.34947202 -12.8125 143.25 C-18.79090769 137.66639282 -22.55474 130.65969769 -23.3359375 122.484375 C-23.45373379 111.22304961 -21.84633712 103.11229849 -14.00390625 94.76171875 C-9.99112813 91.23391577 -5.44971041 88 0 88 C0 58.96 0 29.92 0 0 Z " fill="#FE3D19" transform="translate(194,353)"/>
<path d="M0 0 C2.1640625 0.33984375 2.1640625 0.33984375 4.7265625 1.83984375 C6.77977113 5.41064138 6.90146545 8.37763163 6.1640625 12.33984375 C4.31933985 16.62638583 1.98200171 20.5814446 -0.3984375 24.58984375 C-1.00751953 25.64558594 -1.61660156 26.70132812 -2.24414062 27.7890625 C-4.74514187 32.11354507 -7.25038009 36.41985739 -9.93310547 40.63476562 C-10.59068848 41.68728516 -11.24827148 42.73980469 -11.92578125 43.82421875 C-12.53156006 44.76491211 -13.13733887 45.70560547 -13.76147461 46.67480469 C-15.13621167 49.3140876 -15.13621167 49.3140876 -14.10327148 52.06884766 C-12.87931696 54.26211003 -11.58505585 56.05461129 -9.9609375 57.96484375 C-4.58610914 64.93367758 -2.8359375 71.60633572 -2.8359375 80.33984375 C-29.8959375 80.33984375 -56.9559375 80.33984375 -84.8359375 80.33984375 C-84.8359375 69.02467648 -80.76715462 59.68011033 -73.0234375 51.40234375 C-64.59617033 43.51877123 -55.78640623 40.15649378 -44.3984375 40.21484375 C-43.64755859 40.21097656 -42.89667969 40.20710938 -42.12304688 40.203125 C-38.22729433 40.20997769 -34.6404441 40.38682619 -30.8359375 41.33984375 C-30.60003906 40.68757813 -30.36414063 40.0353125 -30.12109375 39.36328125 C-28.43814273 35.4039983 -26.37648904 31.71428193 -24.2734375 27.96484375 C-23.83378662 27.17843506 -23.39413574 26.39202637 -22.94116211 25.58178711 C-19.98488682 20.32106797 -16.97912529 15.09120997 -13.8984375 9.90234375 C-13.53355225 9.28246582 -13.16866699 8.66258789 -12.79272461 8.02392578 C-9.04666981 1.78661784 -7.33488294 -0.29865159 0 0 Z " fill="#58545B" transform="translate(299.8359375,262.66015625)"/>
<path d="M0 0 C6.27 0 12.54 0 19 0 C19 29.04 19 58.08 19 88 C12.73 88 6.46 88 0 88 C0 58.96 0 29.92 0 0 Z " fill="#333333" transform="translate(280,353)"/>
<path d="M0 0 C5.94 0 11.88 0 18 0 C18 29.04 18 58.08 18 88 C12.06 88 6.12 88 0 88 C0 58.96 0 29.92 0 0 Z " fill="#333333" transform="translate(194,353)"/>
<path d="M0 0 C6.70900426 3.24812257 9.49962115 6.6994696 14 13 C-1.18 28.18 -16.36 43.36 -32 59 C-35.66110343 57.16944828 -37.37667355 55.81645033 -40.125 52.9375 C-42.77905 50.08428067 -42.77905 50.08428067 -46 48 C-44.49315032 44.46760977 -42.44633388 42.2037834 -39.73388672 39.50683594 C-38.85312469 38.62622498 -37.97236267 37.74561401 -37.06491089 36.83831787 C-36.10327649 35.88689569 -35.1415328 34.93558397 -34.1796875 33.984375 C-33.19561893 33.00403871 -32.21199258 32.02325832 -31.22879028 31.04205322 C-28.64557286 28.46645533 -26.05640488 25.89692143 -23.46594238 23.32861328 C-20.8213238 20.70448933 -18.1823899 18.07466229 -15.54296875 15.4453125 C-10.36751928 10.2912833 -5.18576878 5.14364843 0 0 Z " fill="#3A3732" transform="translate(384,202)"/>
<path d="M0 0 C3.30623348 1.46280307 5.65593898 3.30908383 8.3125 5.75 C9.18519531 6.54921875 10.05789062 7.3484375 10.95703125 8.171875 C15.13558864 12.04707108 19.29845498 15.9392068 23.45898438 19.83374023 C28.58002036 24.62336165 33.76885546 29.33087925 39 34 C40.87564306 35.68678521 42.75065189 37.37427596 44.625 39.0625 C45.46289062 39.81660156 46.30078125 40.57070312 47.1640625 41.34765625 C47.76992187 41.89292969 48.37578125 42.43820313 49 43 C47.46356148 46.68069887 45.21849055 48.98775204 42.375 51.75 C41.55773437 52.54921875 40.74046875 53.3484375 39.8984375 54.171875 C39.27195313 54.77515625 38.64546875 55.3784375 38 56 C34.69376652 54.53719693 32.34406102 52.69091617 29.6875 50.25 C28.37458984 49.04730469 28.37458984 49.04730469 27.03515625 47.8203125 C26.02254627 46.88116837 25.01089277 45.94099228 24 45 C23.42749512 44.46729492 22.85499023 43.93458984 22.26513672 43.38574219 C19.08966583 40.42783889 15.9191355 37.46468805 12.75 34.5 C4.60273266 26.88588717 -3.6337328 19.37330115 -12 12 C-8.57833482 7.29521038 -4.42094803 3.72346836 0 0 Z " fill="#363533" transform="translate(124,205)"/>
<path d="M0 0 C6.27 0 12.54 0 19 0 C19.1236881 6.60189998 19.21438303 13.20312416 19.2746582 19.8059082 C19.29978723 22.05147044 19.33389615 24.296951 19.37719727 26.54223633 C19.43791776 29.77185218 19.46622631 33.00038584 19.48828125 36.23046875 C19.51408768 37.23272995 19.5398941 38.23499115 19.56648254 39.2676239 C19.56837138 43.97200149 19.56118242 46.24490176 16.68823242 50.1105957 C13.3128233 52.48297707 11.11726156 53 7 53 C4.10378912 51.77715541 2.53183585 50.86275305 0.87747192 48.17901611 C-0.11143728 45.72326906 -0.24156125 43.96414698 -0.22705078 41.32324219 C-0.22689972 40.40258972 -0.22674866 39.48193726 -0.22659302 38.53338623 C-0.21627045 37.54783752 -0.20594788 36.56228882 -0.1953125 35.546875 C-0.1924826 34.53151672 -0.18965271 33.51615845 -0.18673706 32.47003174 C-0.17555001 29.22990084 -0.15044791 25.99004724 -0.125 22.75 C-0.1149683 20.55208733 -0.10584278 18.35417032 -0.09765625 16.15625 C-0.07561546 10.77072663 -0.04109552 5.38541032 0 0 Z " fill="#323232" transform="translate(322,353)"/>
<path d="M0 0 C6.27 0 12.54 0 19 0 C19.04594807 6.17490998 19.08576311 12.34922511 19.10986328 18.52416992 C19.11991169 20.62412528 19.13355266 22.72406669 19.15087891 24.82397461 C19.17517801 27.8449244 19.18649482 30.86568895 19.1953125 33.88671875 C19.20563507 34.82335861 19.21595764 35.75999847 19.22659302 36.72502136 C19.22751782 42.11563656 18.91838047 46.17291299 15.8125 50.75 C12.93274549 52.73603759 10.45362522 52.88090948 7 53 C3.42612398 51.41161066 2.18910428 50.28365642 0 47 C-0.24050903 44.85493469 -0.24050903 44.85493469 -0.22705078 42.3449707 C-0.22689972 41.40422195 -0.22674866 40.46347321 -0.22659302 39.49421692 C-0.21627045 38.48163315 -0.20594788 37.46904938 -0.1953125 36.42578125 C-0.1924826 35.38681198 -0.18965271 34.34784271 -0.18673706 33.27738953 C-0.17553282 29.95564303 -0.15042764 26.63416515 -0.125 23.3125 C-0.11497052 21.06185285 -0.10584462 18.81120148 -0.09765625 16.56054688 C-0.07559265 11.04026092 -0.04106099 5.52017602 0 0 Z " fill="#333333" transform="translate(236,353)"/>
<path d="M0 0 C2.1640625 0.33984375 2.1640625 0.33984375 4.7265625 1.83984375 C6.77849043 5.40841407 6.89534039 8.37951075 6.1640625 12.33984375 C4.34198115 16.60645429 2.02620789 20.53983875 -0.3359375 24.52734375 C-0.97289551 25.63198975 -1.60985352 26.73663574 -2.26611328 27.87475586 C-6.65155562 35.44479831 -11.11873241 42.97104202 -15.8359375 50.33984375 C-19.13675541 48.72087116 -22.36151183 46.98060066 -25.5859375 45.21484375 C-26.57078125 44.67601562 -27.555625 44.1371875 -28.5703125 43.58203125 C-29.31796875 43.17210937 -30.065625 42.7621875 -30.8359375 42.33984375 C-30.2470299 38.30402765 -28.96121904 35.45063216 -26.88671875 31.953125 C-26.28537109 30.93154297 -25.68402344 29.90996094 -25.06445312 28.85742188 C-24.43216797 27.79974609 -23.79988281 26.74207031 -23.1484375 25.65234375 C-22.53548828 24.61400391 -21.92253906 23.57566406 -21.29101562 22.50585938 C-20.07078078 20.44194147 -18.84573735 18.38085838 -17.61572266 16.32275391 C-16.4502271 14.36938975 -15.2932986 12.41088233 -14.14599609 10.44677734 C-13.62473145 9.55941895 -13.1034668 8.67206055 -12.56640625 7.7578125 C-12.11031982 6.97559326 -11.6542334 6.19337402 -11.18432617 5.38745117 C-7.94958468 0.47530616 -5.76131832 -0.23458136 0 0 Z " fill="#353535" transform="translate(299.8359375,262.66015625)"/>
<path d="M0 0 C0.91330078 -0.00478363 1.82660156 -0.00956726 2.76757812 -0.01449585 C4.69402799 -0.01789067 6.62053579 -0.00871744 8.546875 0.01220703 C11.49089348 0.03897969 14.4310997 0.01244628 17.375 -0.01953125 C19.25000839 -0.01622708 21.12501442 -0.00982068 23 0 C23.87720703 -0.01012115 24.75441406 -0.02024231 25.65820312 -0.03067017 C30.1144344 0.05452825 31.94450565 0.22950293 35.5637207 3.06079102 C37.64329421 5.85671742 38.13033764 6.8314739 37.6875 10.2265625 C37.61917969 10.97035156 37.55085938 11.71414062 37.48046875 12.48046875 C35.94409807 15.90210705 33.76566094 16.89309225 30.5 18.6640625 C27.51130318 19.22328015 24.59285542 19.22577808 21.55859375 19.1953125 C20.71329605 19.1991394 19.86799835 19.20296631 18.99708557 19.20690918 C17.21785281 19.20962041 15.43857965 19.20231463 13.65942383 19.18554688 C10.94196568 19.16409775 8.22714292 19.18538762 5.50976562 19.2109375 C3.77603586 19.2082946 2.04230772 19.20317041 0.30859375 19.1953125 C-0.90407921 19.20745789 -0.90407921 19.20745789 -2.14125061 19.21984863 C-6.10849085 19.154123 -8.06084123 18.94214747 -11.49536133 16.76733398 C-13.68560319 14.46932721 -14.289649 13.34749037 -14.625 10.2265625 C-14.73070312 9.48535156 -14.83640625 8.74414062 -14.9453125 7.98046875 C-13.42260822 0.05973507 -6.54641787 -0.07553212 0 0 Z " fill="#373531" transform="translate(244.5,86.3359375)"/>
<path d="M0 0 C3 2 3 2 6 4 C10.38261849 4.62608836 12.25125882 4.50978123 15.9375 2 C20.14162886 -0.74555354 22.04041408 -0.70851227 27 0 C30 2.0625 30 2.0625 32 5 C32.79564743 9.37606088 32.41510155 11.30816409 30.125 15.125 C24.50924697 20.94410899 17.99143715 23.31195132 10 23.625 C2.00856285 23.31195132 -4.50924697 20.94410899 -10.125 15.125 C-12.41510155 11.30816409 -12.79564743 9.37606088 -12 5 C-8.5686114 0.11287078 -5.86560231 -0.92614773 0 0 Z " fill="#323433" transform="translate(436,160)"/>
<path d="M0 0 C4.24804036 2.19834133 8.87064215 4.9287843 11.0625 9.3125 C11.49273798 13.18464182 11.37919086 14.83746371 9.1875 18.125 C6.47069426 20.92171179 5.66636898 21.25553123 1.75 21.625 C-1.9375 21.3125 -1.9375 21.3125 -4.375 19.3125 C-7.29143033 17.03626169 -9.21688551 16.74051739 -12.890625 16.90625 C-15.14324563 17.35333501 -16.61687167 18.10724351 -18.5625 19.3125 C-22.18449556 21.45886774 -23.82296618 22.04397268 -27.9375 21.3125 C-31.17692475 18.68593939 -32.74644864 16.71354327 -33.3125 12.5625 C-32.81566077 8.25656004 -31.15451483 6.02731116 -27.9375 3.3125 C-19.54103963 -2.6336922 -9.61109609 -3.94799233 0 0 Z " fill="#363332" transform="translate(76.9375,161.6875)"/>
<path d="M0 0 C1.83498047 -0.03867188 1.83498047 -0.03867188 3.70703125 -0.078125 C7.44181539 0.27397586 9.23847895 0.98396587 12.1875 3.25 C14.1875 6.25 14.1875 6.25 14 9.6875 C13.21648102 13.12292939 12.64499502 14.79250498 10.1875 17.25 C6.75117253 18.39544249 3.93318045 18.4897802 0.3125 18.5625 C-0.90179688 18.59988281 -2.11609375 18.63726562 -3.3671875 18.67578125 C-7.39734619 18.17772309 -8.96646989 17.08027718 -11.8125 14.25 C-13.23912219 11.39675563 -13.12283868 9.41545451 -12.8125 6.25 C-9.01201189 0.54926783 -6.67736111 0.08390401 0 0 Z " fill="#323533" transform="translate(425.8125,125.75)"/>
<path d="M0 0 C1.83498047 -0.03867188 1.83498047 -0.03867188 3.70703125 -0.078125 C7.44181539 0.27397586 9.23847895 0.98396587 12.1875 3.25 C14.52918764 6.76253146 14.68373677 8.11469356 14.1875 12.25 C12.03659549 15.58761045 10.98337201 16.98470933 7.1875 18.25 C-5.11355979 19.30783069 -5.11355979 19.30783069 -10.125 16.1875 C-12.15979643 12.64544696 -12.88565977 10.34694705 -12.8125 6.25 C-9.17535551 0.48073633 -6.58014041 0.08268239 0 0 Z " fill="#373332" transform="translate(84.8125,125.75)"/>
<path d="M0 0 C3.24624919 1.24086699 5.40942268 2.81884535 7 6 C7.43023798 9.87214182 7.31669086 11.52496371 5.125 14.8125 C2.0303085 17.99821183 0.1222638 18.18282848 -4.26367188 18.28320312 C-5.2778418 18.29770508 -5.2778418 18.29770508 -6.3125 18.3125 C-7.62863281 18.34988281 -8.94476563 18.38726562 -10.30078125 18.42578125 C-14.50222832 17.94219336 -16.06376487 16.96928843 -19 14 C-20.44430855 11.11138291 -20.37688506 9.20352299 -20 6 C-14.14775191 -0.93029379 -8.71165133 -0.79292943 0 0 Z " fill="#3A3631" transform="translate(282,47)"/>
<path d="M0 0 C1.83498047 -0.03867188 1.83498047 -0.03867188 3.70703125 -0.078125 C7.44181539 0.27397586 9.23847895 0.98396587 12.1875 3.25 C14.62345272 6.90392909 14.3132742 8.24135953 13.66796875 12.37890625 C13.05094926 14.78177075 12.26450225 15.89196007 10.1875 17.25 C4.7043487 19.0777171 -1.10435277 18.83082902 -6.8125 18.25 C-10.83713682 15.74409406 -11.51433307 14.23219695 -12.875 9.75 C-12.79906644 5.49772053 -11.8172581 4.16890787 -8.8125 1.25 C-5.88789571 -0.21230215 -3.25597176 0.04091273 0 0 Z " fill="#323533" transform="translate(464.8125,125.75)"/>
<path d="M0 0 C1.83498047 -0.03867188 1.83498047 -0.03867188 3.70703125 -0.078125 C7.44181539 0.27397586 9.23847895 0.98396587 12.1875 3.25 C14.1875 6.25 14.1875 6.25 14 9.6875 C13.21648102 13.12292939 12.64499502 14.79250498 10.1875 17.25 C6.75117253 18.39544249 3.93318045 18.4897802 0.3125 18.5625 C-0.90179688 18.59988281 -2.11609375 18.63726562 -3.3671875 18.67578125 C-7.39734619 18.17772309 -8.96646989 17.08027718 -11.8125 14.25 C-13.23912219 11.39675563 -13.12283868 9.41545451 -12.8125 6.25 C-9.01201189 0.54926783 -6.67736111 0.08390401 0 0 Z " fill="#373332" transform="translate(45.8125,125.75)"/>
<path d="M0 0 C8.00912188 0.08164242 8.00912188 0.08164242 11.1875 2.375 C13.5279607 5.67917982 13.98792433 7.37848855 14.01171875 11.3125 C12.86818136 14.68561587 11.10554287 16.20919265 8.3125 18.375 C5.39403066 18.91025206 3.20946584 19.12396699 0.3125 19.0625 C-0.38617188 19.09021484 -1.08484375 19.11792969 -1.8046875 19.14648438 C-4.67952991 19.1329238 -6.99141266 18.93342908 -9.27880859 17.09838867 C-11.47827287 14.56920079 -12.64035681 12.60600164 -13.3125 9.3125 C-12.48380875 5.41765113 -10.66803881 3.91936239 -7.6875 1.375 C-5.76766787 -0.54483213 -2.55831238 0.06950483 0 0 Z " fill="#383531" transform="translate(235.6875,46.625)"/>
</svg>
